<?xml version="1.0" standalone="no"?>
<!DOCTYPE svg PUBLIC "-//W3C//DTD SVG 20010904//EN"
 "http://www.w3.org/TR/2001/REC-SVG-20010904/DTD/svg10.dtd">
<svg version="1.0" xmlns="http://www.w3.org/2000/svg"
 width="170.000000pt" height="170.000000pt" viewBox="0 0 170.000000 170.000000"
 preserveAspectRatio="xMidYMid meet">
<metadata>
Created by potrace 1.11, written by Peter Selinger 2001-2013
</metadata>
<g transform="translate(0.000000,170.000000) scale(0.100000,-0.100000)"
fill="#000000" stroke="none">
<path d="M288 1205 c-2 -2 -29 -5 -60 -9 -205 -21 -297 -180 -163 -281 65 -50
110 -57 363 -60 128 -1 234 1 237 5 2 4 7 42 10 86 7 83 18 112 30 73 11 -38
57 -132 73 -151 17 -20 72 -24 101 -8 10 5 29 35 41 67 13 32 27 62 32 68 4 5
8 17 8 27 0 20 17 25 17 6 1 -38 16 -164 20 -168 2 -3 133 -5 289 -6 l284 -1
0 56 0 56 50 18 c28 10 55 27 62 40 16 29 19 175 4 179 -6 2 -51 3 -101 3
l-89 -1 -1 -65 c0 -74 -9 -94 -33 -80 -13 7 -17 25 -19 73 0 35 -2 65 -2 68
-1 4 -150 5 -187 1 -8 -1 -12 -29 -11 -83 0 -76 2 -85 27 -110 15 -14 43 -30
63 -33 68 -13 38 -25 -61 -25 l-99 0 -12 88 c-18 128 -18 129 -67 153 -34 16
-57 20 -97 16 -85 -7 -100 -18 -136 -94 l-33 -68 -30 67 c-26 57 -35 69 -69
82 -52 21 -115 20 -166 -4 -44 -19 -47 -26 -57 -105 -3 -22 -8 -61 -12 -87
l-7 -48 -103 0 c-99 0 -154 10 -154 28 0 5 38 8 85 7 47 -1 88 1 93 4 4 3 8
23 8 43 l1 37 -101 3 c-100 3 -101 3 -68 19 18 9 61 17 95 18 34 1 64 4 66 7
10 10 7 84 -3 85 -28 3 -116 6 -118 4z"/>
<path d="M125 764 c-5 -1 -22 -5 -36 -8 -14 -3 -36 -15 -49 -26 -22 -19 -25
-31 -28 -111 l-3 -89 60 0 c34 0 62 3 62 8 1 4 2 37 3 75 2 66 14 95 35 83 16
-10 13 -36 -4 -36 -10 0 -15 -10 -15 -30 0 -20 5 -30 15 -30 13 0 21 -32 16
-63 -1 -4 27 -7 61 -5 l63 3 1 75 c0 92 -9 114 -54 136 -31 14 -101 25 -127
18z"/>
<path d="M659 751 c-56 -21 -69 -47 -69 -143 l0 -78 59 0 c38 0 60 4 63 13 2
6 3 41 2 77 -2 65 7 83 33 73 18 -7 17 -33 -2 -33 -10 0 -15 -11 -15 -35 0
-26 3 -33 15 -29 12 5 15 -2 15 -30 l0 -37 63 3 62 3 -1 83 c-1 71 -4 85 -24
107 -38 40 -130 52 -201 26z"/>
<path d="M1011 759 c-58 -12 -73 -36 -76 -125 -1 -44 0 -85 3 -91 2 -8 24 -13
58 -13 l54 0 1 53 c1 28 1 61 0 72 -2 35 14 50 41 37 l23 -11 -22 -7 c-27 -8
-33 -58 -8 -68 9 -3 15 -19 15 -41 l0 -35 60 0 c50 0 60 3 61 18 4 55 0 77
-14 86 -13 8 -13 13 -1 30 17 27 0 66 -39 84 -32 16 -109 21 -156 11z"/>
<path d="M1312 754 c-18 -7 -32 -17 -33 -21 0 -4 -2 -17 -4 -28 -2 -11 -7 -47
-10 -80 -3 -33 -9 -68 -11 -77 -5 -16 2 -18 55 -18 56 0 61 2 63 23 0 12 2 27
3 32 2 6 4 24 5 40 1 27 4 24 30 -32 27 -57 32 -63 60 -63 28 0 33 6 60 63
l29 62 0 -40 c2 -78 7 -85 65 -85 29 0 55 2 58 5 3 3 2 25 -3 49 -4 24 -11 66
-14 92 -6 56 -27 80 -71 87 -48 7 -87 -15 -109 -62 l-18 -42 -20 45 c-19 44
-26 49 -93 62 -6 1 -25 -4 -42 -12z"/>
<path d="M359 738 c-3 -62 -1 -149 5 -163 9 -25 70 -45 134 -45 l58 0 0 35 c0
36 -3 38 -48 35 -31 -2 -31 -3 -32 90 l-1 65 -57 3 c-54 3 -58 2 -59 -20z"/>
</g>
</svg>
